<?xml version="1.0" encoding="UTF-8"?>
<!DOCTYPE svg PUBLIC "-//W3C//DTD SVG 1.1//EN" "http://www.w3.org/Graphics/SVG/1.1/DTD/svg11.dtd">
<!-- Creator: CorelDRAW -->
<svg xmlns="http://www.w3.org/2000/svg" xml:space="preserve" width="210mm" height="297mm" version="1.1" style="shape-rendering:geometricPrecision; text-rendering:geometricPrecision; image-rendering:optimizeQuality; fill-rule:evenodd; clip-rule:evenodd"
viewBox="0 0 21000 29700"
 xmlns:xlink="http://www.w3.org/1999/xlink"
 enable-background="new 0 0 334 84"
 xmlns:dc="http://purl.org/dc/elements/1.1/"
 xmlns:cc="http://creativecommons.org/ns#"
 xmlns:rdf="http://www.w3.org/1999/02/22-rdf-syntax-ns#"
 xmlns:svg="http://www.w3.org/2000/svg"
 xmlns:sodipodi="http://sodipodi.sourceforge.net/DTD/sodipodi-0.dtd"
 xmlns:inkscape="http://www.inkscape.org/namespaces/inkscape"
 inkscape:version="0.92.3 (2405546, 2018-03-11)"
 sodipodi:docname="aeromexico.svg">
 <defs>
  <style type="text/css">
   <![CDATA[
    .fil1 {fill:#0C514A}
    .fil2 {fill:#F89C29}
    .fil0 {fill:#0C514A;fill-rule:nonzero}
    .fil4 {fill:url(#id0)}
    .fil3 {fill:url(#id1)}
   ]]>
  </style>
  <linearGradient id="id0" gradientUnits="userSpaceOnUse" x1="11009.5" y1="13297" x2="11658" y2="13935.5">
   <stop offset="0" style="stop-opacity:1; stop-color:#0C514A"/>
   <stop offset="0.188235" style="stop-opacity:1; stop-color:#094139"/>
   <stop offset="1" style="stop-opacity:1; stop-color:#053127"/>
  </linearGradient>
  <linearGradient id="id1" gradientUnits="userSpaceOnUse" x1="12585.6" y1="14993.7" x2="12191" y2="14669.5">
   <stop offset="0" style="stop-opacity:1; stop-color:#F89C29"/>
   <stop offset="1" style="stop-opacity:1; stop-color:#EC6926"/>
  </linearGradient>
 </defs>
 <g id="Layer_x0020_1">
  <metadata id="CorelCorpID_0Corel-Layer"/>
  <g id="REX_x0020_Indonesia.cdr">
   <sodipodi:namedview pagecolor="#ffffff" bordercolor="#666666" borderopacity="1" objecttolerance="10" gridtolerance="10" guidetolerance="10" inkscape:pageopacity="0" inkscape:pageshadow="2" inkscape:window-width="1280" inkscape:window-height="1004" id="namedview198" showgrid="false" fit-margin-top="0" fit-margin-left="0" fit-margin-right="0" fit-margin-bottom="0" inkscape:zoom="8.7486948" inkscape:cx="247.11667" inkscape:cy="40.949792" inkscape:window-x="-8" inkscape:window-y="-8" inkscape:window-maximized="1" inkscape:current-layer="g3"/>
   <sodipodi:namedview id="base" pagecolor="#00ffff" bordercolor="#666666" borderopacity="1.0" inkscape:pageopacity="0" inkscape:pageshadow="2" inkscape:zoom="1.4" inkscape:cx="451.73565" inkscape:cy="-10.201303" inkscape:document-units="px" inkscape:current-layer="layer1" showgrid="false" fit-margin-left="0.3" fit-margin-top="0.3" fit-margin-right="0.3" fit-margin-bottom="0.3" units="px" inkscape:window-width="1920" inkscape:window-height="1001" inkscape:window-x="-9" inkscape:window-y="-9" inkscape:window-maximized="1"/>
   <g>
    <path class="fil0" d="M11515 15979l0 -448 91 0 0 198 183 -198 121 0 -169 174 178 274 -117 0 -123 -211 -73 75 0 136 -91 0zm450 -369l0 -79 85 0 0 79 -85 0zm0 369l0 -325 85 0 0 325 -85 0zm255 0l-85 0 0 -325 79 0 0 46c14,-22 26,-36 37,-43 11,-6 23,-10 37,-10 20,0 39,6 57,16l-27 75c-14,-9 -28,-14 -40,-14 -12,0 -22,3 -31,10 -8,7 -15,19 -19,36 -5,17 -8,53 -8,108l0 101zm162 -369l0 -79 85 0 0 79 -85 0zm0 369l0 -325 85 0 0 325 -85 0zm167 -325l79 0 0 44c28,-34 62,-51 101,-51 21,0 39,4 54,13 15,9 28,21 37,39 15,-18 30,-30 46,-39 17,-9 35,-13 53,-13 24,0 44,5 61,15 16,9 28,24 37,42 6,14 8,36 8,67l0 208 -85 0 0 -186c0,-32 -3,-53 -9,-62 -8,-12 -20,-18 -37,-18 -12,0 -23,4 -34,11 -10,7 -18,18 -23,32 -4,14 -7,36 -7,67l0 156 -85 0 0 -178c0,-31 -2,-52 -5,-61 -3,-9 -7,-16 -14,-20 -6,-5 -15,-7 -26,-7 -13,0 -25,3 -36,10 -10,8 -18,18 -22,31 -5,14 -7,36 -7,67l0 158 -86 0 0 -325zm626 100l-78 -14c9,-31 24,-55 46,-70 21,-15 53,-23 95,-23 38,0 67,5 85,14 19,9 32,20 40,34 7,14 11,40 11,77l-1 100c0,28 1,50 4,63 3,14 8,28 15,44l-85 0c-2,-6 -5,-14 -8,-25 -1,-6 -2,-9 -3,-10 -14,14 -30,25 -47,32 -16,7 -34,11 -53,11 -33,0 -59,-9 -79,-28 -19,-18 -28,-41 -28,-68 0,-18 4,-35 13,-49 9,-14 21,-25 37,-33 15,-8 38,-14 68,-20 40,-8 68,-15 83,-21l0 -9c0,-16 -4,-28 -12,-36 -8,-7 -24,-10 -46,-10 -16,0 -28,3 -36,9 -9,6 -16,17 -21,32zm115 69c-11,4 -28,9 -52,14 -24,5 -40,10 -47,15 -11,8 -17,18 -17,30 0,12 5,22 14,31 9,9 20,13 34,13 15,0 30,-5 44,-15 11,-8 17,-17 21,-29 2,-7 3,-21 3,-41l0 -18zm464 156l-86 0 0 -166c0,-35 -2,-57 -5,-68 -4,-10 -10,-18 -18,-24 -9,-5 -19,-8 -30,-8 -15,0 -29,4 -41,12 -12,8 -20,19 -24,32 -5,14 -7,39 -7,75l0 147 -85 0 0 -325 79 0 0 48c28,-37 64,-55 107,-55 19,0 37,4 52,10 16,7 28,16 36,26 8,11 14,23 17,37 3,13 5,32 5,57l0 202z"/>
    <path class="fil0" d="M11514 16627l0 -448 320 0 0 76 -232 0 0 99 215 0 0 76 -215 0 0 121 240 0 0 76 -328 0zm362 0l112 -167 -107 -157 100 0 56 89 58 -89 97 0 -106 153 116 171 -101 0 -64 -101 -64 101 -97 0zm373 -324l77 0 0 47c10,-16 24,-29 41,-39 17,-10 36,-15 57,-15 36,0 67,14 92,44 25,30 38,71 38,123 0,55 -13,97 -38,127 -26,30 -57,45 -93,45 -17,0 -33,-3 -47,-11 -14,-7 -29,-19 -45,-36l0 162 -82 0 0 -447zm81 157c0,36 7,63 21,81 14,17 31,26 51,26 19,0 35,-8 48,-24 13,-16 19,-42 19,-79 0,-34 -7,-59 -20,-76 -13,-17 -29,-25 -48,-25 -21,0 -37,8 -51,25 -13,16 -20,40 -20,72zm369 167l-83 0 0 -324 77 0 0 46c13,-22 25,-36 35,-43 11,-7 23,-10 36,-10 19,0 37,5 55,16l-26 75c-14,-10 -27,-14 -39,-14 -11,0 -21,3 -29,9 -8,7 -15,19 -19,36 -5,18 -7,54 -7,109l0 100zm336 -103l83 15c-10,31 -27,55 -50,71 -23,17 -52,25 -86,25 -54,0 -95,-18 -121,-55 -20,-30 -31,-67 -31,-112 0,-54 14,-96 41,-127 27,-30 61,-45 103,-45 46,0 83,16 110,47 27,32 40,81 38,147l-207 0c1,25 8,45 20,59 13,15 29,22 48,22 13,0 24,-4 32,-11 9,-8 16,-19 20,-36zm5 -86c0,-25 -6,-44 -18,-57 -12,-13 -26,-20 -43,-20 -18,0 -33,7 -45,21 -12,13 -17,32 -17,56l123 0zm120 98l84 -13c3,16 10,29 21,37 11,9 26,13 46,13 21,0 37,-4 48,-12 7,-6 11,-13 11,-23 0,-7 -2,-12 -6,-16 -4,-4 -14,-8 -28,-12 -67,-15 -109,-29 -127,-41 -25,-18 -37,-42 -37,-74 0,-28 11,-51 32,-71 21,-19 55,-28 100,-28 42,0 74,7 95,21 21,15 35,36 43,65l-78 15c-3,-13 -9,-23 -19,-29 -9,-7 -23,-10 -40,-10 -22,0 -38,3 -47,9 -6,4 -10,10 -10,17 0,7 3,12 9,16 7,6 33,14 77,24 45,11 75,23 93,38 17,16 26,37 26,64 0,30 -12,56 -36,77 -24,21 -59,32 -106,32 -43,0 -77,-9 -102,-27 -25,-18 -41,-42 -49,-72zm336 0l83 -13c4,16 11,29 22,37 10,9 26,13 45,13 21,0 37,-4 48,-12 8,-6 11,-13 11,-23 0,-7 -2,-12 -6,-16 -4,-4 -13,-8 -27,-12 -67,-15 -110,-29 -127,-41 -25,-18 -38,-42 -38,-74 0,-28 11,-51 33,-71 21,-19 54,-28 99,-28 43,0 75,7 96,21 20,15 35,36 43,65l-78 15c-4,-13 -10,-23 -19,-29 -10,-7 -23,-10 -40,-10 -22,0 -38,3 -48,9 -6,4 -9,10 -9,17 0,7 3,12 8,16 8,6 34,14 78,24 44,11 75,23 92,38 18,16 26,37 26,64 0,30 -12,56 -36,77 -23,21 -59,32 -106,32 -43,0 -76,-9 -101,-27 -25,-18 -41,-42 -49,-72z"/>
    <path class="fil1" d="M7218 12965c-12,65 -3,225 -4,301l0 905c0,279 -6,634 1,907 2,77 22,170 79,223 85,80 271,72 400,65 69,-3 65,-26 64,-89l-1 -1206c0,-196 -7,-405 2,-599 108,-21 420,-7 536,6 89,10 150,25 201,72 104,98 118,282 58,416 -82,182 -339,176 -512,176 -178,-1 -174,-3 -48,217l527 862c27,46 58,121 110,131 75,14 386,6 477,2 42,-1 62,-9 58,-56 -8,-101 -435,-655 -491,-825 43,-35 96,-68 145,-101 107,-73 62,-58 128,-113 73,-62 147,-220 171,-320 46,-193 14,-439 -85,-605 -196,-325 -440,-374 -844,-379 -136,-1 -902,-15 -972,10z"/>
    <path class="fil1" d="M10540 13662c10,-50 27,-217 -36,-244 -34,-15 -768,-8 -839,-8 -330,0 -302,-51 -300,265l1 1408c0,59 -16,224 23,255 30,25 707,14 832,13 192,-2 322,30 326,-241 1,-122 19,-162 -111,-170 -97,-6 -504,16 -557,-5 -39,-15 -26,-72 -25,-114 3,-146 -28,-218 58,-219l423 1c99,0 171,-4 197,-88 13,-43 23,-227 13,-270 -17,-77 -171,-50 -237,-50 -94,1 -188,1 -281,1 -185,0 -176,16 -176,-105 0,-46 -11,-230 11,-259 21,-26 213,-14 265,-14 177,0 376,23 413,-156z"/>
    <path class="fil2" d="M11758 14504l380 472c8,-25 40,-85 58,-116 23,-41 41,-82 59,-115 20,-38 109,-210 124,-222 4,-24 255,-503 287,-562l182 -348c7,-13 12,-22 19,-34l83 -170c-132,3 -265,1 -396,2 -77,1 -153,-13 -209,35 -5,5 -19,19 -23,24l-564 1034z"/>
    <path class="fil3" d="M12138 14976c11,25 52,69 69,92 12,16 24,34 34,46 13,15 22,24 34,40 33,45 98,134 138,170 38,34 75,31 134,30 123,0 368,-7 467,0l-633 -838c-15,12 -106,191 -126,229 -18,33 -36,74 -59,115 -18,31 -50,91 -58,116z"/>
    <path class="fil4" d="M11423 14065l256 -466 -108 -148c-40,-48 -112,-49 -190,-48 -154,0 -312,-3 -465,2 9,17 1,3 9,14l498 646z"/>
    <path class="fil1" d="M11422 14062l-897 1654c-17,33 -44,74 -57,112 110,-1 220,0 330,0 111,0 218,18 266,-63l694 -1261c25,-35 150,-281 191,-348l64 -120 -87 -115c-30,-38 -55,-73 -84,-110l-170 -221c-11,42 -97,189 -124,238l-95 174c-12,24 -22,35 -31,60z"/>
   </g>
  </g>
 </g>
</svg>
